<?xml version="1.0" standalone="no"?>
<!DOCTYPE svg PUBLIC "-//W3C//DTD SVG 20010904//EN"
 "http://www.w3.org/TR/2001/REC-SVG-20010904/DTD/svg10.dtd">
<svg version="1.0" xmlns="http://www.w3.org/2000/svg"
 width="512.000000pt" height="512.000000pt" viewBox="0 0 512.000000 512.000000"
 preserveAspectRatio="xMidYMid meet">
<metadata>
Created by potrace 1.15, written by Peter Selinger 2001-2017
</metadata>
<g transform="translate(0.000000,512.000000) scale(0.100000,-0.100000)"
fill="#000" stroke="none">
<path d="M2310 4879 c-298 -31 -636 -140 -897 -290 -197 -113 -320 -206 -481
-363 -569 -554 -811 -1341 -657 -2127 180 -913 910 -1643 1824 -1824 1449
-286 2791 812 2791 2285 0 529 -174 1032 -501 1446 -387 491 -976 813 -1598
874 -120 12 -359 11 -481 -1z m550 -364 c417 -68 796 -262 1093 -559 263 -262
433 -562 526 -926 41 -163 55 -281 55 -470 0 -189 -14 -307 -55 -470 -93 -364
-263 -664 -526 -926 -299 -299 -668 -487 -1098 -560 -138 -24 -452 -24 -590 0
-430 73 -801 262 -1100 561 -299 299 -488 669 -562 1100 -23 138 -23 452 0
590 74 431 263 801 562 1100 333 333 767 535 1245 579 85 8 355 -4 450 -19z"/>
<path d="M2482 4269 c-26 -13 -55 -39 -70 -62 l-27 -41 -3 -795 c-2 -559 0
-811 8 -847 12 -58 62 -119 108 -131 15 -5 360 -8 767 -8 827 0 774 -5 832 72
24 31 28 46 28 103 0 57 -4 72 -28 103 -58 76 -18 72 -724 75 l-632 3 -3 713
-3 712 -27 41 c-30 46 -96 83 -149 83 -19 0 -53 -10 -77 -21z"/>
</g>
</svg>
