<?xml version="1.0" standalone="no"?>
<!DOCTYPE svg PUBLIC "-//W3C//DTD SVG 20010904//EN"
 "http://www.w3.org/TR/2001/REC-SVG-20010904/DTD/svg10.dtd">
<svg version="1.0" xmlns="http://www.w3.org/2000/svg"
 width="2400.000000pt" height="1714.000000pt" viewBox="0 0 2400.000000 1714.000000"
 preserveAspectRatio="xMidYMid meet">
<metadata>
Created by potrace 1.15, written by Peter Selinger 2001-2017
</metadata>
<g transform="translate(0.000000,1714.000000) scale(0.100000,-0.100000)"
fill="#000" stroke="none">
<path d="M2245 17125 c-297 -39 -542 -114 -820 -250 -746 -366 -1270 -1082
-1400 -1910 -15 -90 -17 -732 -21 -6340 -3 -4271 -1 -6270 6 -6335 46 -422
207 -851 443 -1185 141 -199 351 -420 527 -557 312 -241 674 -409 1050 -488
259 -53 -439 -49 9955 -56 7550 -6 9653 -4 9735 5 783 91 1474 527 1895 1196
138 219 272 548 329 805 60 274 56 -228 56 6706 l0 6342 -36 143 c-258 1030
-1116 1789 -2172 1923 -112 14 -1075 16 -9785 15 -7876 -1 -9680 -4 -9762 -14z
m14675 -5959 c-2991 -2989 -4631 -4622 -4660 -4639 -118 -66 -260 -75 -380
-22 -76 33 200 -241 -5653 5603 l-3678 3672 9493 0 9493 0 -4615 -4614z m5780
-8711 c-49 -574 -280 -921 -715 -1072 l-70 -24 -3237 3243 -3237 3243 3632
3633 3632 3632 3 -6262 c2 -4502 0 -6300 -8 -6393z m-17382 2188 c-3132 -3132
-3272 -3271 -3297 -3262 -67 25 -172 84 -235 131 -160 120 -256 288 -319 560
l-22 93 -2 6450 -3 6450 3575 -3575 3575 -3575 -3272 -3272z m5337 1212 c1102
-1107 1142 -1146 1210 -1177 125 -57 283 -50 405 20 28 16 458 437 1148 1126
l1102 1101 2818 -2818 2817 -2817 -8180 0 -8180 0 2855 2855 c1570 1570 2857
2855 2860 2855 3 1 518 -515 1145 -1145z"/>
</g>
</svg>
