<?xml version="1.0" standalone="no"?>
<!DOCTYPE svg PUBLIC "-//W3C//DTD SVG 20010904//EN"
 "http://www.w3.org/TR/2001/REC-SVG-20010904/DTD/svg10.dtd">
<svg version="1.0" xmlns="http://www.w3.org/2000/svg"
 width="512.000000pt" height="512.000000pt" viewBox="0 0 512.000000 512.000000"
 preserveAspectRatio="xMidYMid meet">
<metadata>
Created by potrace 1.15, written by Peter Selinger 2001-2017
</metadata>
<g transform="translate(0.000000,512.000000) scale(0.100000,-0.100000)"
fill="#fff" stroke="none">
<path d="M2350 5103 c-242 -36 -377 -72 -550 -144 -491 -205 -894 -641 -1059
-1144 -73 -225 -86 -316 -86 -595 1 -227 3 -254 27 -371 48 -222 144 -460 255
-629 42 -63 1600 -2189 1622 -2213 7 -7 1519 2025 1619 2177 152 230 260 525
293 798 17 148 7 457 -20 593 -161 799 -804 1405 -1612 1520 -95 13 -420 19
-489 8z m510 -188 c883 -156 1517 -962 1442 -1833 -25 -291 -123 -579 -273
-802 -103 -153 -1464 -1979 -1470 -1972 -19 21 -1411 1919 -1457 1987 -67 100
-151 271 -191 390 -128 382 -117 787 30 1159 201 509 654 907 1184 1039 87 22
140 32 280 51 66 9 365 -4 455 -19z"/>
<path d="M2416 4200 c-208 -33 -391 -122 -539 -260 -418 -390 -421 -1041 -7
-1438 329 -317 869 -364 1253 -108 535 355 598 1108 130 1546 -180 169 -397
257 -653 265 -69 2 -152 0 -184 -5z m351 -190 c368 -94 623 -417 623 -789 0
-223 -73 -403 -229 -565 -107 -111 -242 -191 -391 -232 -91 -25 -319 -25 -410
0 -149 41 -285 122 -391 232 -158 166 -229 340 -229 565 0 405 299 744 715
809 82 12 218 3 312 -20z"/>
</g>
</svg>
