<?xml version="1.0" standalone="no"?>
<!DOCTYPE svg PUBLIC "-//W3C//DTD SVG 1.1//EN" "http://www.w3.org/Graphics/SVG/1.1/DTD/svg11.dtd">
<svg xmlns="http://www.w3.org/2000/svg">
<metadata>Copyright (C) 2017 by original authors @ fontello.com</metadata>
<defs>
<font id="fontello" horiz-adv-x="1000" >
<font-face font-family="fontello" font-weight="400" font-stretch="normal" units-per-em="1000" ascent="850" descent="-150" />
<missing-glyph horiz-adv-x="1000" />
<glyph glyph-name="bath" unicode="&#xe800;" d="M180 847c-27-6-58-26-73-47-7-10-16-28-19-39-2-6-3-45-4-188l-1-181-28-1c-31-1-37-3-46-14-9-10-9-15-8-125 0-90 1-106 4-119 15-66 52-121 103-156l16-10 1-27c1-25 2-28 7-40 17-36 57-57 94-48 33 8 61 37 65 69l1 12 208 0 208 0 1-12c2-15 12-34 23-46 33-33 83-33 117-1 19 18 26 37 26 71l0 21 16 11c51 33 87 87 103 150 5 21 5 21 5 125 1 71 1 106-1 111-3 11-10 20-20 24-8 4-25 4-430 4l-423 0 0 172c0 189 0 184 12 205 27 45 89 54 127 19 22-21 27-36 27-79l0-29-6-2c-8-3-22-17-27-27-2-4-4-7-4-8 0-1 114-1 116 0 4 5-21 33-31 35-4 1-4 2-6 36-1 39-4 55-18 78-9 15-29 34-43 42-26 15-64 21-92 14z m736-559l0-22-416 0-416 0 0 22 0 21 416 0 416 0 0-21z m0-99c-1-35-1-38-7-56-19-55-62-96-120-111l-16-5-273 0-272 0-17 5c-63 16-111 66-124 127-2 10-3 26-3 46l0 30 416 0 416 0 0-36z m-731-248c16-4 37-7 52-7l14 0-2-8c-2-17-14-30-31-33-30-6-52 13-52 46 0 6 1 7 4 6 1-1 8-2 15-4z m648-8c-2-24-13-37-35-41-20-3-41 10-46 28-4 14-3 14 11 14 16 0 38 3 55 8 7 2 14 3 15 3 1 1 1-5 0-12z" horiz-adv-x="1000" />

<glyph glyph-name="phone" unicode="&#xe801;" d="M459 848c-101-9-192-45-270-107-21-16-54-49-71-69-116-138-149-328-86-496 39-107 114-197 212-255 33-20 81-41 117-51 121-34 243-24 355 29 102 49 186 133 235 235 66 138 66 294 0 432-42 88-111 163-195 213-43 26-96 47-147 59-45 10-104 14-150 10z m87-60c59-6 122-27 174-57 109-63 185-168 211-290 12-56 12-126 0-182-26-122-102-226-211-290-66-39-140-59-220-59-79 0-154 20-220 59-109 64-184 168-211 290-12 56-12 126 0 182 27 122 102 227 211 290 79 47 170 66 266 57z m-153-100c-3-2-16-9-29-17-26-14-31-19-31-30 0-4 10-22 45-82 24-42 45-79 47-82 4-7 11-11 19-11 5 0 12 4 33 16 29 16 35 22 35 32 0 4-13 28-48 88-42 73-48 83-53 85-7 4-11 4-18 1z m-87-68c-24-15-38-28-49-44-34-55 3-207 86-344 54-88 119-162 177-199 24-16 42-22 63-22 20 0 33 4 58 16l21 10-5 7c-2 4-23 41-47 82l-43 75-12-4c-10-3-14-4-24-3-36 3-74 33-106 85-25 39-39 83-40 119 0 29 6 46 22 60l8 7-21 34c-11 20-32 56-46 82-15 26-28 47-28 47-1 0-7-4-14-8z m304-370c-18-10-27-17-29-20-7-11-7-12 42-95 25-44 46-81 48-83 1-3 5-6 8-7 9-4 17-1 45 15 27 16 32 20 32 32 0 3-11 24-39 72-55 96-56 98-61 100-11 5-17 3-46-14z" horiz-adv-x="1000" />

<glyph glyph-name="television" unicode="&#xe802;" d="M626 684l-126-126-76 76c-68 68-76 75-82 75-17 0-26-14-19-28 2-3 31-34 66-68l62-63-179-1c-177-1-179-1-190-5-40-15-68-46-78-86-4-14-4-22-4-257 0-206 1-245 3-256 9-44 48-83 92-92 20-4 790-4 810 0 44 9 83 48 92 92 2 11 3 50 3 256 0 235 0 243-4 257-10 40-38 71-78 86-11 4-13 4-190 5l-179 1 112 113c62 61 114 114 116 117 7 14-2 29-18 29l-8 0-125-125z m273-177c32-8 56-35 60-68 3-19 3-461 0-479-5-36-33-64-69-69-19-3-761-3-780 0-18 3-35 11-47 24-13 13-19 27-22 45-2 18-2 460 0 479 4 33 28 60 59 68 16 5 783 5 799 0z m-594-18c-92-3-138-12-173-34-43-27-63-75-69-167-3-38-3-140 0-176 7-107 34-157 94-180 49-19 96-22 279-21 78 1 135 2 147 3 65 8 99 21 126 47 37 38 51 100 51 239 0 110-7 164-28 206-22 46-58 67-132 78-42 6-172 8-295 5z m247-41c98-6 134-24 151-74 12-36 16-80 16-172 0-125-8-176-34-208-16-20-46-32-94-39-43-5-204-7-298-3-158 6-183 30-192 183-2 44-1 133 3 165 10 97 31 126 100 140 17 3 51 7 78 8 34 2 240 1 270 0z m303-118c-1-1-5-2-8-2-7-2-19-13-23-22-14-32 17-65 50-53 11 4 22 16 25 27 4 17-5 37-20 45-7 3-21 6-24 5z m-4-182c-17-3-31-20-31-38 0-24 20-41 45-39 23 2 40 26 34 48-6 22-26 34-48 29z" horiz-adv-x="1000" />

<glyph glyph-name="speakers" unicode="&#xe803;" d="M493 826c-211-12-385-23-385-24-2-1 45-917 46-919 2-2 675-33 676-31 1 1 63 982 63 994 0 3-1 4-8 4-4 0-180-11-392-24z m45-60c171-4 312-8 313-9 1 0-20-188-47-417l-49-416-262 0c-145 0-262 1-262 1 0 1-19 190-42 421-24 231-42 422-42 425l0 5 39-1c22-1 180-5 352-9z m-85-63c-34-12-62-42-75-82-17-50 0-91 46-114 19-9 33-14 56-16 16-2 40-1 52 3 20 6 39 22 47 39 16 33 14 71-4 108-7 15-12 22-25 34-9 9-20 19-26 21-24 12-48 15-71 7z m45-60c23-8 42-23 50-39 15-34-31-77-81-74-32 2-49 23-49 59 0 17 2 26 10 38 14 20 39 26 70 16z m-67-231c-54-10-93-40-118-90-16-33-24-69-24-114 0-128 73-210 184-205 36 2 67 10 97 25 65 33 113 99 127 174 4 26 3 62-4 82-22 68-97 117-196 129-23 2-49 2-66-1z m100-37c48-16 86-57 103-112 5-15 5-21 6-44 0-19-1-29-4-39-12-45-42-75-86-87-39-10-89-3-123 18-35 21-63 59-74 99-5 19-6 50-3 68 14 64 73 105 147 103 15-1 25-3 34-6z" horiz-adv-x="1000" />

<glyph glyph-name="small_table" unicode="&#xe804;" d="M192 616c-11-5-182-162-188-172-4-8-4-11-4-55l0-46 5-11c6-10 16-17 29-20l5-1 0-216c0-208 0-216 4-223 9-18 19-22 53-22 24 0 27 0 36 5 8 4 12 7 16 14l5 9 1 217 0 216 346 0 346 0 0-216 1-217 5-9c4-7 8-10 16-14 9-5 12-5 36-5 34 0 44 4 53 22 4 7 4 15 4 223l0 216 5 1c13 3 23 10 29 20l5 11 0 45c0 39-1 46-4 53-4 8-14 19-116 112-35 32-67 61-70 62-6 3-29 4-308 4-289 1-302 0-310-3z m0-345c0-1-1-47 0-101 0-96 0-98 5-106 4-9 8-13 17-17 8-4 24-5 33-1 8 3 18 15 20 24 2 5 3 43 3 106l0 98-39 0c-30 0-38-1-39-3z m539-95c0-63 0-101 2-106 2-9 12-21 20-24 9-4 25-3 33 1 9 4 13 8 18 17 4 8 4 9 4 108l0 101-39 0-38 1 0-98z" horiz-adv-x="1000" />

<glyph glyph-name="refrigerator" unicode="&#xe805;" d="M316 848c-24-4-52-25-63-46-12-24-11 10-11-452 0-382 1-422 3-432 11-35 39-61 73-66 15-3 349-3 364 0 34 5 62 31 73 66 2 10 3 50 3 432 0 382-1 422-3 432-11 35-39 61-73 66-13 2-352 2-366 0z m367-52c9-4 15-9 21-19l4-8 1-202 0-202-6 1c-3 1-97 2-209 2l-203 0 0 200 1 201 4 8c5 9 11 15 20 19 6 3 31 3 184 3 155 0 177 0 183-3z m26-672l-1-193-4-8c-6-10-12-15-21-19-6-3-29-3-183-3-154 0-177 0-183 3-9 4-15 9-21 19l-4 8-1 193 0 193 209 0 209 0 0-193z m-302 590c-3-1-8-5-10-8-4-5-4-6-4-57l0-51 6-7c6-5 9-7 17-8 6 0 51-1 101 0 99 0 96 0 104 14 4 5 4 10 4 52 0 51-1 57-11 64-5 3-13 3-103 4-85 0-99 0-104-3z m167-64l0-17-66 0-67 0 0 17 0 16 67 0 66 0 0-16z m-89-414c-9-7-10-14-10-46l0-29-17 12c-15 12-18 13-26 13-12 0-21-7-24-18-3-14 1-20 27-40l22-17-5-5c-3-3-14-11-23-18-19-15-23-22-21-33 2-15 15-23 29-21 3 1 13 7 21 14l16 11 1-25c1-27 2-31 11-37 11-8 29-4 36 8 1 2 3 15 3 28l1 24 15-10c8-7 16-12 19-13 14-3 30 9 30 23 0 4-1 10-2 12-1 3-12 13-24 23-13 9-23 17-23 18 0 1 9 9 20 17 26 20 29 24 29 36 0 12-7 21-19 22-12 2-16 0-32-12l-14-11 0 29c0 31-1 38-10 45-4 4-9 5-15 5-6 0-11-1-15-5z" horiz-adv-x="1000" />

<glyph glyph-name="safebox" unicode="&#xe806;" d="M12 847c-13-7-12 35-12-497 0-434 0-481 3-487 7-14-36-13 497-13 533 0 490-1 497 13 3 6 3 53 3 487 0 533 1 490-13 497-6 3-53 3-487 3-433 0-482 0-488-3z m943-497l0-455-455 0-455 0 0 455 0 455 455 0 455 0 0-455z m-857 402l-6-7 0-395 0-395 6-7 7-6 395 0 395 0 7 6 6 7 0 395 0 395-6 7-7 6-395 0-395 0-7-6z m765-84l0-45-66 0c-40 0-70 0-75-1-4-2-9-5-12-8l-5-7 0-76 0-76 7-7 6-6 73 0 72 0 0-92 0-92-72 0-73 0-6-6-7-7 0-76 0-76 5-6c3-4 8-7 12-8 5-2 35-2 75-2l66 0 0-45 0-45-363 0-363 0 0 363 0 363 363 0 363 0 0-45z m0-136l0-45-56 0-57 0 0 45 0 45 57 0 56 0 0-45z m0-364l0-45-56 0-57 0 0 45 0 45 57 0 56 0 0-45z m-485 362c-2-1-6-4-9-7-4-5-5-7-5-33l-1-28-10-4c-6-2-14-5-20-8l-9-5-17 17c-21 20-25 23-34 23-5 0-9-2-14-7-6-5-7-7-7-15 0-9 0-10 20-30l19-20-6-15c-4-7-8-16-8-19l-2-6-23 0c-27 0-35-1-42-9-11-14-2-33 17-36 4-1 17-1 28-1l20 1 3-11c2-6 6-15 9-20l5-9-20-21c-20-20-20-20-20-29 0-8 1-10 7-16 5-5 9-7 14-7 9 0 13 3 34 23l17 17 9-5c6-3 14-6 20-8l10-3 1-29c0-28 0-28 6-34 10-10 26-9 34 2 4 4 4 8 4 33l0 28 6 1c3 0 12 4 20 8l15 7 18-18c10-9 20-18 23-20 10-5 24 0 29 11 5 13 2 19-18 40l-19 20 7 15c4 8 7 17 8 19 0 3 2 4 39 5 31 0 40 1 43 4 8 6 11 10 11 19 0 9-3 14-11 20-3 2-12 3-43 3-37 1-39 2-39 5-1 3-4 11-8 19l-7 16 19 19c21 22 23 28 18 40-6 11-19 16-29 11-3-2-13-10-23-20l-18-18-15 7c-8 4-17 8-20 8l-6 1 0 28c0 31-1 34-11 40-7 3-13 3-19 1z m29-115c10-3 16-7 24-15 9-8 18-21 18-26 0 0-8-1-19-1-32 0-42-5-42-23 0-18 10-23 42-23 11 0 19-1 19-1 0-5-9-18-18-26-8-8-14-11-24-14-15-5-20-5-34-2-22 5-38 17-47 36-6 12-7 15-7 30 0 15 1 18 7 30 9 19 24 31 44 36 14 3 23 3 37-1z" horiz-adv-x="1000" />

<glyph glyph-name="big_table" unicode="&#xe807;" d="M168 729c-29-4-54-26-64-53-2-8-3-14-4-23-1-38 25-73 64-81 8-2 23-2 31-1 17 4 29 11 41 23 19 18 27 42 23 68-4 25-20 48-44 60-14 7-32 9-47 7z m20-40c15-3 28-16 31-31 6-28-19-53-47-47-15 3-28 16-31 31-6 28 19 53 47 47z m620 40c-29-4-54-26-64-53-2-8-3-14-4-23-1-38 25-73 64-81 8-2 23-2 31-1 17 4 29 11 41 23 19 18 27 42 23 68-4 25-20 48-44 60-14 7-32 9-47 7z m20-40c3 0 7-2 10-3 13-7 22-21 22-36 0-22-18-40-40-40-22 0-40 18-40 40 0 25 24 44 48 39z m-660-140c-29-4-54-26-64-53-4-13-4-4-4-113 0-109 0-105 4-118 8-24 28-44 53-51 11-4 14-4 65-4l48 0-2-9c0-6-1-10-1-11 0 0-35 0-78 0l-78 0-4 2c-12 4-21 13-25 25l-2 4 0 147 0 147-2 3c-2 4-5 8-9 10-8 4-18 2-24-4-1-2-3-4-3-6l-2-3 0-148c0-161 0-151 4-162 5-17 16-31 34-43 1-1 0-5-9-86-5-47-9-86-9-87 0-7 5-14 11-17 5-2 13-2 18 0 4 2 7 5 9 9 1 3 2 11 11 85 5 45 9 82 9 83l0 1 71 0c40 0 72 0 72-1 0 0-5-31-11-69-5-38-10-69-10-70 0-3 2-9 4-12 5-7 27-18 47-23 24-5 56-7 82-3 18 3 35 8 43 13l4 3 4-3c8-6 28-11 49-14 6 0 13-1 27-1 14 0 21 1 27 1 21 3 41 8 49 14l4 2 4-2c8-6 28-11 49-14 11-1 43-1 54 0 23 3 41 8 54 16 8 5 13 9 15 12 2 2 4 8 4 11 0 1-5 32-10 70-6 38-11 69-11 69 0 1 32 1 72 1l71 0 0-1c0-1 5-38 10-83 8-74 9-82 10-85 2-4 5-7 9-9 3-1 4-2 9-2 4 0 6 1 9 2 6 3 11 10 11 17 0 1-4 40-9 87-9 81-10 85-9 86 18 12 29 26 34 43 4 11 4 1 4 162l0 148-2 3c-2 4-5 8-9 10-8 4-18 2-24-4-1-2-3-4-3-6l-2-3 0-147 0-147-2-4c-4-12-13-21-25-25l-4-2-78 0c-43 0-78 0-78 0 0 1-1 5-1 11l-2 9 48 0c51 0 54 0 65 4 25 7 45 27 53 51 4 13 4 9 4 115 0 106 0 102-4 115-4 12-11 24-21 33-12 11-27 19-43 21-25 4-48-4-65-21-11-11-19-24-23-38-4-13-4-10-4-89l0-71-14 0-14 0-6 43c-6 36-7 43-8 46-2 4-4 6-9 9l-4 2-185 0-185 0-3-2c-4-2-8-6-10-9-1-3-3-13-8-46l-6-43-14 0-14 0 0 74 0 73-2 6c-5 21-14 36-28 48-17 15-39 22-62 18z m20-40c15-3 26-14 30-31l2-5 0-84 0-84 2-4c3-5 5-6 10-9l3-2 23 0 24 0 0-2c-1-1-2-9-3-18-2-10-3-18-3-19l0-1-50 0c-56 0-55 0-64 4-11 6-19 16-21 28-1 7-1 190 0 196 4 22 26 36 47 31z m640 0c3 0 7-2 10-3 11-6 19-16 21-28 1-3 1-18 1-98 0-104 0-98-4-108-5-10-16-19-28-21-3-1-12-1-54-1l-50 0 0 1c0 1-1 9-3 19-1 9-2 17-2 18l-1 2 24 0 23 0 4 2c4 3 6 4 9 9l2 4 0 84 0 84 2 5c1 3 2 7 4 11 8 16 25 24 42 20z m-138-302c15-101 28-184 28-185 0-2 0-2-3-3-22-10-66-12-95-5-5 1-15 4-17 6l-3 1 0 37c0 36 0 37-2 40-2 4-5 8-9 10-8 4-18 2-24-4-1-2-3-4-3-6-2-3-2-3-2-40 0-28 0-37-1-37-1-1-8-4-14-6-24-6-60-7-85-1-5 1-15 4-17 6l-3 1 0 57c0 57 0 57-2 60-2 4-5 8-9 10-8 4-18 2-24-4-1-2-3-4-3-6-2-3-2-3-2-60l0-57-2-1c-4-2-16-5-23-7-12-2-19-3-35-3-16 0-23 1-35 3-7 2-21 6-22 7-1 1 6 48 27 186l27 184 163 0 163 0 27-183z" horiz-adv-x="1000" />

<glyph glyph-name="dishes" unicode="&#xe808;" d="M20 536c1-111 1-114 5-128 8-27 20-45 48-69l7-5 1-133c0-117 1-133 3-145 7-30 19-43 42-45 18-3 36 7 43 25 10 22 10 23 11 165l0 133 15 11c22 17 33 34 41 61 3 11 3 23 4 128l0 116-110 0-110 0 0-114z m60-1l1-74 6-6c4-4 8-5 13-5 6 0 9 1 13 5l6 6 1 74 0 75 10 0 10 0 0-75 1-74 6-6c4-4 8-5 13-5 6 0 9 1 13 5l6 6 1 74 0 75 10 0 10 0 0-96c-1-84-1-97-4-105-4-12-12-21-26-32-6-4-13-11-17-16-13-14-13-11-13-142 0-136-2-169-10-169-8 0-10 33-10 169 0 143 2 129-27 157-22 20-28 29-31 49-1 7-2 47-2 98l0 87 10 0 10 0 0-75z m767 110l-6-5-1-260c0-168 1-268 2-283 3-42 10-63 24-76 17-14 36-14 51 0 19 18 23 49 23 185 0 103 0 98 14 135 22 55 25 70 25 111 0 24-1 34-4 48-14 66-46 113-95 142-17 10-24 11-33 3z m58-81c23-30 34-68 34-114 0-32-3-42-19-85-20-52-18-36-20-166-1-90-2-116-4-128-2-8-3-14-4-15-2-2-5 6-8 20-2 14-3 38-3 265l-1 250 8-8c5-5 12-13 17-19z m-409 64c-106-12-200-86-238-187-60-163 36-343 205-383 195-46 377 114 355 314-17 159-161 274-322 256z m82-42c100-20 178-98 198-199 4-22 4-72 0-94-20-101-98-179-199-199-22-4-72-4-94 0-101 20-179 98-199 199-4 22-4 72 0 94 10 49 32 91 66 126 40 43 93 68 154 76 13 2 59-1 74-3z m-73-58c-50-6-96-34-127-74-12-17-26-45-32-67-4-16-5-21-5-47 0-26 1-31 5-47 9-34 27-65 52-89 25-24 52-39 85-48 16-4 22-5 47-5 26 0 31 1 47 5 77 21 132 84 141 164 2 16 2 17-1 23-2 4-6 7-11 9-7 2-8 2-14-1-8-3-11-10-13-25-4-54-41-103-92-125-37-15-82-14-119 3-43 20-75 59-84 105-14 67 18 135 79 165 16 8 28 12 50 15 15 3 18 3 22 8 10 12 4 31-11 32-4 1-12 0-19-1z" horiz-adv-x="1000" />

<glyph glyph-name="sofa" unicode="&#xe809;" d="M171 630c-32-5-63-33-73-65-3-10-3-17-3-53l0-42-13-6c-20-11-37-30-46-53l-4-11-1-181 0-182 31 1 32 0 0 32 1 31 405 0 406 0 0-31 0-32 32 0 31-1 0 182-1 181-4 11c-8 23-25 42-46 53l-12 6 0 42c0 36-1 43-4 53-10 33-41 60-75 65-15 2-641 2-656 0z m660-67c11-8 13-15 13-57l0-37-12-5c-21-10-43-37-48-61-1-5-2-25-2-46l0-38-282 0-282 0 0 38c0 41-1 49-10 67-7 15-26 33-40 40l-12 5 0 38c0 34 1 39 4 45 3 6 10 13 16 15 2 1 148 1 326 1l323-1 6-4z m-687-156c12-9 12-12 12-85l0-66 344 0 344 0 0 66c0 73 0 76 13 85 9 6 25 7 34 1 3-2 8-7 10-10l5-7 0-114 0-114-406 0-405 0 0 114 0 114 4 7c2 3 7 8 10 10 9 6 25 5 35-1z" horiz-adv-x="1000" />

<glyph glyph-name="mirror" unicode="&#xe80a;" d="M459 826c-41-4-74-14-111-33-15-7-35-19-45-26-24-17-58-52-75-75-26-37-47-86-55-128-2-10-4-20-4-22l-1-4-44 0c-48 0-53-1-57-11-5-11-2-53 6-91 19-82 64-159 130-223 74-71 162-113 261-124 9-1 11-2 10-4-1-2-1-41-1-88l0-85-87 0-87 0-6-5c-11-10-8-29 5-34 3-1 77-2 197-2 187 0 192 1 198 4 11 7 12 24 1 33l-5 4-87 0-86 0 0 84c0 46-1 85-1 88-1 4-1 4 16 5 148 11 294 114 363 254 21 43 33 85 39 129 5 41 3 58-7 63-2 1-26 2-55 3l-51 1-3 14c-13 89-68 172-144 222-63 41-141 60-214 51z m68-41c33-3 80-19 112-37 70-42 117-108 135-189 4-18 4-26 4-59 0-31-1-41-4-57-6-26-13-45-24-68-41-81-110-134-201-154-25-6-80-6-106-1-78 15-144 60-187 124-32 49-47 99-47 158 0 97 48 186 131 239 39 26 84 41 131 45 18 1 28 1 56-1z m-360-304c5-52 18-97 41-139 47-83 126-141 223-162 16-4 25-5 62-5 38 0 46 1 64 5 104 22 187 87 232 181 18 37 28 74 32 122l2 14 35 0 35 0-1-15c-5-53-30-119-63-168-65-96-161-160-271-180-28-5-88-5-116 0-135 25-250 116-306 243-14 34-25 72-28 105l-1 15 29 0 30 0 1-16z m238 168c-3-2-30-28-59-57l-54-54 1-9c1-5 3-11 5-13 5-6 15-8 22-6 8 3 113 109 116 117 4 12-7 26-20 26-3 0-7-2-11-4z m201-2c-7-5-32-31-205-206l-58-58 1-8c3-15 17-23 31-16 6 3 260 258 264 264 4 8 2 16-5 23-9 9-17 9-28 1z" horiz-adv-x="1000" />

<glyph glyph-name="conditioning" unicode="&#xe80b;" d="M91 850c-16-2-34-8-48-18-7-5-20-18-25-26-8-11-13-23-16-37l-2-7 0-171 0-171 2-7c2-9 5-21 9-27 4-8 48-86 51-91 12-18 31-33 52-40 15-5 18-5 76-5l50 0 0 20 0 20-52 0-51 0-6 2c-11 3-22 10-29 18-4 3-8 10-12 16l-2 4 412 0 412 0-2-4c-6-11-13-19-22-25-6-4-14-7-21-9-5-2-5-2-56-2l-51 0 0-20 0-20 53 0c52 0 53 0 60 2 27 6 52 22 66 44 3 5 48 84 50 90 5 9 9 23 10 35 1 4 1 62 1 170 0 177 0 171-3 183-5 18-13 33-27 46-14 15-30 24-51 28l-6 2-410 0c-226 0-411 0-412 0z m823-42c12-3 20-8 28-16 8-8 13-16 16-28l2-4 0-155 0-155-460 0-460 0 0 155 0 155 2 4c6 21 20 37 40 43 8 3-12 3 420 3l408 0 4-2z m40-401c-1-4-3-7-11-22l-8-15-435 0-435 0-8 16c-5 9-10 17-10 19-1 2-1 3-2 4 0 1 22 1 455 1l455 0-1-3z m-194 291l0-33-28 16c-15 9-28 16-28 16-1 0-5-8-10-17-9-15-10-17-9-18 0 0 13-8 28-16 14-9 26-16 26-16 0 0-12-7-27-16-15-9-28-16-28-16 0-1 20-35 20-35 0 0 13 7 28 16l28 16 0-33 0-32 20 0 20 0 0 32 0 33 28-16c15-9 28-16 28-16 0 0 5 8 10 17 9 16 10 17 9 18 0 0-13 8-28 16-14 9-26 16-26 16 0 0 12 7 27 16 14 8 27 16 27 16 1 1 0 4-9 18-5 9-9 17-10 17 0 0-13-7-28-16l-28-16 0 33 0 32-20 0-20 0 0-32z m-449-409c-7-1-14-5-19-11-16-15-16-40 0-56 5-5 9-8 16-10 4-1 5-2 12-2 7 0 8 1 12 2 7 2 11 5 16 10 7 7 11 16 12 26 1 26-23 47-49 41z m180 0c-7-1-14-5-19-11-16-15-16-40 0-56 5-5 9-8 16-10 4-1 5-2 12-2 7 0 8 1 12 2 7 2 11 5 16 10 7 7 11 16 12 26 1 26-23 47-49 41z m180 0c-7-1-14-5-19-11-16-15-16-40 0-56 5-5 9-8 16-10 4-1 5-2 12-2 7 0 8 1 12 2 7 2 11 5 16 10 7 7 11 16 12 26 1 26-23 47-49 41z m-380-120c-7-1-14-5-19-11-16-15-16-40 0-56 5-5 9-8 16-10 4-1 5-2 12-2 7 0 8 1 12 2 7 2 11 5 16 10 7 7 11 16 12 26 1 26-23 47-49 41z m200 0c-7-1-14-5-19-11-16-15-16-40 0-56 5-5 9-8 16-10 4-1 5-2 12-2 7 0 8 1 12 2 7 2 11 5 16 10 7 7 11 16 12 26 1 26-23 47-49 41z m200 0c-7-1-14-5-19-11-16-15-16-40 0-56 5-5 9-8 16-10 4-1 5-2 12-2 7 0 8 1 12 2 7 2 11 5 16 10 7 7 11 16 12 26 1 26-23 47-49 41z m-440-120c-7-1-14-5-19-11-16-15-16-40 0-56 5-5 9-8 16-10 4-1 5-2 12-2 7 0 8 1 12 2 7 2 11 5 16 10 7 7 11 16 12 26 1 26-23 47-49 41z m240 0c-7-1-14-5-19-11-16-15-16-40 0-56 5-5 9-8 16-10 4-1 5-2 12-2 7 0 8 1 12 2 7 2 11 5 16 10 7 7 11 16 12 26 1 26-23 47-49 41z m240 0c-7-1-14-5-19-11-16-15-16-40 0-56 5-5 9-8 16-10 4-1 5-2 12-2 7 0 8 1 12 2 7 2 11 5 16 10 7 7 11 16 12 26 1 26-23 47-49 41z m-560-120c-7-1-14-5-19-11-16-15-16-40 0-56 5-5 9-8 16-10 4-1 5-2 12-2 7 0 8 1 12 2 7 2 11 5 16 10 7 7 11 16 12 26 1 26-23 47-49 41z m320 0c-7-1-14-5-19-11-16-15-16-40 0-56 5-5 9-8 16-10 4-1 5-2 12-2 7 0 8 1 12 2 7 2 11 5 16 10 7 7 11 16 12 26 1 26-23 47-49 41z m320 0c-7-1-14-5-19-11-16-15-16-40 0-56 5-5 9-8 16-10 4-1 5-2 12-2 7 0 8 1 12 2 7 2 11 5 16 10 7 7 11 16 12 26 1 26-23 47-49 41z" horiz-adv-x="1000" />

<glyph glyph-name="bed" unicode="&#xe80c;" d="M78 647c-11-5-26-18-32-29-3-6-6-59-7-174l-2-166-11-25c-21-49-23-63-25-240l-2-163 71 0 71 0 0 48c0 46 0 50 9 60l9 11 341 0 341 0 9-11c9-10 9-14 9-60l0-48 71 0 71 0-2 163c-2 177-4 191-25 240l-11 25-2 167c-2 160-2 167-10 177-4 6-13 14-19 19-10 8-13 8-427 9-272 0-421-1-427-3z m835-44c6-6 7-19 8-140 1-123 0-143-9-129-1 2-14 11-27 18l-26 14 0 49c0 55-2 62-34 75-32 14-72 18-155 18-82 0-124-5-153-17-17-7-17-7-34 0-29 12-71 17-153 17-83 0-123-4-155-18-32-13-34-20-34-75l0-49-26-14c-13-7-26-16-27-18-1-2-4-3-6-3-5 0-5 250 0 263 2 6 8 12 13 14 5 2 173 3 410 3 379-1 401-2 408-8z m-478-141c43-8 46-11 45-33l-1-18-71-3c-72-3-149-11-192-21-38-9-36-10-36 28l0 33 13 5c11 5 45 12 84 16 27 3 129-2 158-7z m339 0c47-9 46-9 46-47 0-38 2-37-36-28-43 10-119 18-192 21l-70 3-2 18c-1 18 0 19 12 24 12 5 52 12 87 16 30 3 126-1 155-7z m-137-96c235-18 308-70 322-228l2-26-461 0-460 0 1 26c10 116 53 172 155 202 39 11 99 21 158 25 62 5 221 5 283 1z m323-386l-1-89-29 0-30 0-2 37c-2 43-8 57-32 71l-16 9-350 0-350 0-16-9c-24-14-30-28-32-71l-2-37-30 0-29 0-1 89-1 89 461 0 461 0-1-89z" horiz-adv-x="1000" />

<glyph glyph-name="cupboard" unicode="&#xe80d;" d="M59 780l0-71 20 0 21 0 0-429 0-430 70 0 70 0 1 46c0 42 1 48 4 56 3 6 7 10 12 12 8 4 15 4 243 4 229 0 236 0 243-4 5-2 9-6 12-12 3-8 4-14 4-56l1-46 70 0 70 0 0 430 0 429 21 0 20 0 0 71 0 70-441 0-441 0 0-70z m839 0l0-30-398 0-398 0 0 30 0 29 398 0 398 0 0-29z m-419-420l0-350-169 0-169 0 0 350 0 349 169 0 169 0 0-349z m380 0l0-350-169 0-168 0 0 350 0 349 168 0 169 0 0-349z m-654-392c0-1-1-7-3-13-2-7-3-20-3-37l0-27-29 0-29 0 0 39 0 39 32 0c18 0 32 0 32-1z m654-38l0-39-29 0-29 0 0 27c0 17-1 30-3 37-2 6-3 12-3 13 0 1 14 1 32 1l32 0 0-39z m-473 494l-6-5 0-69 0-69 6-5c12-11 27-7 33 7 4 8 4 120 1 132-4 15-22 20-34 9z m202 3c-9-7-10-12-10-75 0-35 1-62 2-67 4-15 22-20 34-9l6 5 0 69 0 69-6 5c-8 7-18 8-26 3z" horiz-adv-x="1000" />

<glyph glyph-name="corpus" unicode="&#xe80e;" d="M460 809l-42-42 42-42 42-41 41 41 42 42-42 41-42 42-41-41z m166 0l-41-42 42-42 41-41 42 41 41 42-41 41-42 42-42-41z m167 0l-41-42 41-42 42-41 41 41 42 42-42 41-41 42-42-41z m-666-1l-42-41 42-42 41-41 42 41 41 42-41 41c-23 23-41 41-42 41 0 0-19-18-41-41z m166 0l-41-41 42-42 41-41 41 41 42 42-41 41c-23 23-42 41-42 41 0 0-19-18-42-41z m-250-541l0-417 459 0 458 0 0 417 0 416-458 0-459 0 0-416z m834 0l0-334-125 0-125 0 0 105 0 104-125 0-125 0 0-104 0-105-125 0-125 0 0 334 0 333 375 0 375 0 0-333z m-334-271l0-63-41 0-42 0 0 63 0 62 42 0 41 0 0-62z m-333 479l0-42 42 0 41 0 0 42 0 42-41 0-42 0 0-42z m167 0l0-42 41 0 42 0 0 42 0 42-42 0-41 0 0-42z m166 0l0-42 42 0 42 0 0 42 0 42-42 0-42 0 0-42z m167 0l0-42 42 0 41 0 0 42 0 42-41 0-42 0 0-42z m-500-125l0-42 42 0 41 0 0 42 0 42-41 0-42 0 0-42z m167 0l0-42 41 0 42 0 0 42 0 42-42 0-41 0 0-42z m166 0l0-42 42 0 42 0 0 42 0 42-42 0-42 0 0-42z m167 0l0-42 42 0 41 0 0 42 0 42-41 0-42 0 0-42z m-500-125l0-42 42 0 41 0 0 42 0 42-41 0-42 0 0-42z m167 0l0-42 41 0 42 0 0 42 0 42-42 0-41 0 0-42z m166 0l0-42 42 0 42 0 0 42 0 42-42 0-42 0 0-42z m167 0l0-42 42 0 41 0 0 42 0 42-41 0-42 0 0-42z m-500-125l0-42 42 0 41 0 0 42 0 42-41 0-42 0 0-42z m500 0l0-42 42 0 41 0 0 42 0 42-41 0-42 0 0-42z" horiz-adv-x="1000" />

<glyph glyph-name="persones" unicode="&#xe80f;" d="M473 759c-59-13-101-70-97-129 2-32 13-56 37-80 25-25 52-36 89-36 34 0 60 11 85 36 13 13 18 19 24 32 10 23 13 35 13 58-1 53-34 98-85 116-18 6-47 8-66 3z m-221-166c-21-3-40-13-53-28-48-54-10-139 63-139 74 0 111 91 58 143-12 12-30 21-46 23-11 2-13 2-22 1z m472-1c-15-2-34-12-45-24-52-53-15-142 59-142 72 0 111 84 64 139-19 21-50 32-78 27z m-651-105c-14-6-23-14-30-28-19-38 8-80 50-80 32-1 56 23 56 55 0 22-11 40-31 51-12 6-32 7-45 2z m820 2c-26-8-42-29-42-55 0-32 24-56 56-55 32 0 56 23 56 55 0 24-14 44-37 53-10 4-24 5-33 2z m-427-12c-16-3-36-10-51-17-53-27-88-70-105-129-4-15-4-17-5-204l0-189 195 0 196 0-1 188-1 188-5 18c-16 58-52 102-104 127-30 15-43 18-79 19-17 0-35 0-40-1z m-226-86c-44-8-80-35-99-75-14-28-14-30-14-173l0-127 73 0 73 0 0 136c0 75 1 145 2 154 3 22 9 44 17 64 4 9 7 16 7 16 0 1-4 2-9 3-13 3-39 4-50 2z m487 1c-12-2-26-5-26-6 0 0 3-5 5-12 3-6 7-17 9-24 10-32 10-29 11-186l1-148 73 0 73 0 0 127c0 145 0 145-15 176-21 42-64 71-110 73-9 0-19 0-21 0z m-644-47c-28-3-58-23-72-49-10-19-11-28-11-126l0-89 48 0 48 0 0 101c1 107 1 107 11 133 2 6 6 14 8 18 2 3 4 7 4 8 0 1-7 2-23 4-3 0-9 0-13 0z m811-1c-6-1-12-2-13-3 0 0 2-5 5-12 17-32 17-32 18-147l1-101 47 0 48 0 0 89c0 98-1 107-11 126-7 13-24 30-36 37-19 10-38 14-59 11z" horiz-adv-x="1000" />

<glyph glyph-name="price" unicode="&#xe810;" d="M240 848c-2-2-6-5-8-8l-4-6-1-226 0-227-80 0c-86 0-90 0-97-10-4-5-4-8-4-66 0-54 0-60 3-65 7-11 10-11 98-11l80 0 0-42 0-42-82 0c-58 0-84-1-87-2-11-5-12-8-13-62 0-53 1-60 10-68 6-4 8-4 89-4l83-1 0-67c0-38 0-70 2-74 1-3 4-9 7-11l5-5 62-1c35 0 66 0 70 1 4 1 9 4 12 7l6 6 0 72 0 72 183 1c183 0 184 0 189 4 10 8 11 15 10 68 0 44-1 50-4 55-2 2-5 5-7 6-2 1-86 2-187 3l-183 1-1 42 0 41 123 0c129 0 164 1 196 8 47 10 90 28 125 54 85 65 126 160 118 275-5 72-28 130-72 180-53 60-123 94-211 102-31 3-423 3-430 0z m394-150c30-3 45-7 68-18 42-20 71-57 80-103 4-19 4-56 0-74-12-62-59-106-124-119-13-2-35-3-142-3l-125 0 0 158c0 87 0 159 1 159 2 2 217 2 242 0z" horiz-adv-x="1000" />

<glyph glyph-name="square" unicode="&#xe811;" d="M881 846c-14-5-21-13-25-28-2-6-3-11-3-11 1 0 7-1 14-3 11-1 12-1 12 4 0 10 14 21 28 21 9 0 21-9 23-19 3-11-5-25-25-44-10-9-25-23-33-31-14-13-22-27-22-37 0-4 7-4 53-4l53 0 0 10 0 10-36 0-36 0 30 29c17 15 33 33 36 39 11 22 5 49-13 61-11 7-42 8-56 3z m-458-89c-47-6-109-26-145-46-27-16-74-60-89-86-24-42-34-77-33-126 0-57 13-97 46-141 39-52 98-81 251-122 24-7 65-18 92-25 62-16 93-29 108-42 16-15 21-25 21-49 0-26-7-43-28-65-29-31-71-44-140-44-79 1-129 21-160 66-19 26-28 51-35 95-1 6-2 11-4 11-3 0-146-18-152-19-4 0-10-7-15-14l-10-12 9-33c17-68 40-112 81-154 45-48 96-74 176-90 29-6 42-7 107-7 82 1 106 4 160 23 95 34 161 98 190 187 9 29 11 94 4 127-10 45-28 78-61 109-46 44-89 62-284 115-107 29-124 35-143 46-40 24-47 66-16 100 25 27 64 39 134 39 46 0 67-3 96-17 33-15 60-53 67-95 2-12 4-22 5-23 2-1 135 14 152 18 9 2 24 24 23 33-5 40-34 110-58 138-44 54-122 89-220 101-24 3-109 4-129 2z" horiz-adv-x="1000" />

<glyph glyph-name="towel" unicode="&#xe814;" d="M213 850c-27-2-50-8-68-18-35-17-57-48-65-91-3-16-4-23-4-53l0-27-24-1c-26 0-26 0-34-4-6-3-12-9-15-16l-3-5 0-12c0-13 0-14 5-21 3-6 9-10 14-13 8-4 9-4 34-4l23 0 0-267c0-297-1-271 4-280 5-10 14-17 25-20 3-1 10-1 44-1l40 0 0-59c0-56 0-59 2-64 3-15 16-26 31-28 3-1 98-1 311-1l307 0 5 2c12 4 21 13 25 25l1 4 0 344 0 345 42 0 42 0 5 2c9 3 17 10 21 19 3 5 4 10 4 17 0 17-10 30-26 36-4 1-5 1-46 2l-42 0 0 22c0 24 0 34-3 47-11 70-60 113-133 119-7 1-514 1-522 1z m514-77c2-1 3-2 3-2 0-1-2-1-4-2-14-3-30-11-41-22-23-21-36-53-39-101-1-5-2-11-2-14-1-4-1-6-1-10 0-3 0-65 1-138l0-132-4-2c-3-1-13-5-22-10-30-15-42-20-50-20-7 0-20 5-47 19-28 13-42 18-62 18-17 1-32-2-49-8-4-2-15-7-24-12-19-9-32-14-38-16-10-3-18 0-54 17-10 5-21 10-25 12-15 5-30 8-46 7-19 0-34-5-59-17-6-3-12-6-12-6-1 0-1 54 0 143 0 79 0 146 0 148 0 3 0 23 0 45 0 42 0 47 3 59 3 12 7 20 14 27 10 10 25 16 44 18 4 0 120 0 259 0l251 0 4-1z m40-76c7-2 13-8 17-16 3-6 7-19 6-20 0 0-15 0-33 0l-34 0 2 7c4 16 10 25 19 29 6 2 18 2 23 0z m29-434l-1-322-265 0-265 0 0 38 0 38 213 0 212 0 4 2c11 4 20 13 24 23 0 2 1 6 1 9 1 4 1 109 1 270l0 264 38 0 38 0 0-322z m-559 17c8-3 16-7 35-16 25-12 35-16 50-18 6-1 10-2 19-2 12 0 18 1 30 4 10 3 17 6 38 16 22 10 31 15 40 17 5 1 5 1 10 0 7-1 17-6 39-16 20-10 27-13 36-16 14-4 30-6 43-5 19 2 33 7 57 19l10 5 0-15-1-15-5-2c-3-1-12-6-20-10-26-13-41-19-48-20-8 0-18 4-48 18-19 10-27 13-37 16-11 3-16 3-30 3-14 0-18 0-30-3-11-3-18-6-40-17-27-13-35-16-43-17-7 0-17 4-46 18-23 11-34 15-49 18-5 1-9 1-20 1-13 0-15 0-22-1-4-1-12-3-16-5-8-2-25-10-33-14-2-1-4-2-4-2-1 0-1 3-1 14l0 15 6 2c3 1 14 6 25 12 19 9 32 15 39 17 5 1 9 1 16-1z m-4-113c7-2 18-6 39-16 26-13 35-16 51-19 8-2 24-2 32-1 18 3 29 7 56 20 26 13 38 18 45 17 7-1 18-5 43-17 18-9 22-11 31-14 14-5 24-6 38-6 22 0 37 4 64 17l12 6 0-31 0-30-246 0-247 0 0 21 0 22 6 2c4 2 15 7 26 12 24 13 37 18 44 18 1 0 4 0 6-1z" horiz-adv-x="1000" />

<glyph glyph-name="swimming" unicode="&#xe815;" d="M720 505c-23-3-45-14-62-30-42-41-44-107-5-151 15-16 34-28 55-33 9-2 15-3 26-3 19 0 32 3 49 11 28 14 50 41 58 72 2 9 2 15 2 26 0 19-3 32-11 48-14 29-40 50-72 58-12 3-27 4-40 2z m27-63c12-3 23-12 29-24 4-8 5-12 5-21 0-9-1-14-5-21-4-9-11-16-21-21-7-4-11-5-21-5-9 0-13 1-21 5-5 3-7 4-12 9-4 4-6 6-8 11-4 7-5 12-5 19-1 14 4 26 13 36 7 7 15 11 24 13 5 1 16 1 22-1z m-321 63c-7-1-14-3-20-6-4-2-20-13-59-41-29-21-67-48-84-60-17-12-31-22-31-23 0-1 36-50 37-50 1 0 37 27 82 59 44 32 81 58 81 58 1 0 17-18 36-40 31-36 36-41 35-42-1 0-53-45-116-98l-114-97 3-1c6 0 27-1 36-1 17 0 35 1 54 4l8 1 85 73c81 70 85 73 86 72 1-1 62-72 62-72 0 0 5 1 10 2 19 5 51 11 58 11 1 0 2 0 2 0 1 1-25 31-99 117-56 63-102 117-104 119-13 11-31 17-48 15z m271-281c-37-2-77-10-125-26-7-3-31-11-53-19-23-8-48-17-56-19-69-23-119-31-174-28-44 2-83 9-122 22-41 14-81 35-108 57l-6 5-22-22c-11-12-21-22-21-23 0-1 18-15 32-24 63-42 142-69 222-76 67-6 122 0 193 21 17 6 34 11 75 26 64 23 86 30 117 36 64 15 122 10 187-15 36-14 78-37 107-59 3-3 5-4 5-4 14 15 41 48 41 49-1 1-16 12-29 21-62 42-135 70-202 77-20 2-42 3-61 1z" horiz-adv-x="1000" />

<glyph glyph-name="beach" unicode="&#xe816;" d="M441 846c-11-6-14-14-15-36 0-12 0-23 1-25l1-5 27 0 26 1 0 25c0 24 0 26-4 32-8 12-23 15-36 8z m-17-91c-4 0-15-2-26-3-84-9-165-48-221-104-46-47-69-97-74-161-2-22 3-25 17-12 13 12 32 23 49 29 20 6 50 8 71 3 18-3 43-15 57-27 16-14 15-14 33-1 43 31 96 46 143 41 41-5 79-20 112-45 5-4 10-8 11-8 0 0 7 5 13 11 51 43 127 43 176 0 7-6 13-11 15-11 6 0 7 6 6 21-5 57-27 106-66 150-53 60-134 101-223 113-19 3-80 6-93 4z m11-265c-3-1-6-3-7-4-2-2-2-64-2-209l1-207 27 0 27 0 1 207c0 184 0 208-2 210-4 2-35 4-45 3z m402-232c-3-1-15-23-37-68l-33-67-90 0-91 0-3-4c-2-3-12-22-22-43l-19-38-168 0c-149 0-168-1-172-4-4-2-5-4-5-27 0-13 1-26 2-28 2-4 5-4 41-4 24 0 39-1 39-2 0-1-12-27-26-57-14-30-26-56-26-57 0-2 1-4 3-6 2-2 8-3 31-3l28 0 4 6c2 4 16 32 31 63l27 56 175 0 174 0 30-61c16-33 30-61 32-62 2-1 15-2 30-2 27 0 32 1 32 9 0 2-13 28-29 59l-29 56 65 135c36 74 66 137 66 139 1 3 0 6-2 8-4 4-7 4-29 4-14 0-27-1-29-2z m-95-183c0-1-3-9-8-19l-8-18-65 0-65 0 8 17c4 9 9 18 10 19 1 2 17 3 65 3 35 0 63-1 63-2z m-314-134c-3-3-3-59 0-70 6-22 34-28 48-10l5 7 0 37 0 38-25 0c-18 1-26 0-28-2z" horiz-adv-x="1000" />

<glyph glyph-name="bar" unicode="&#xe817;" d="M204 847c-34-6-76-24-104-46-19-14-46-42-57-59-20-30-34-65-40-98-4-23-4-65 0-88 8-48 31-93 65-129 21-21 41-36 66-49 42-22 75-29 125-28 41 2 68 8 102 25 11 6 13 6 15 4 1-1 38-46 82-100l79-97 0-112 0-112-14-4c-27-6-81-22-107-31-65-22-105-49-105-69l0-4 266 0 267 0-1 6c-4 21-40 44-103 66-26 10-79 25-109 32l-14 4 0 113 0 112 168 205c93 113 170 209 172 213 3 5 5 12 5 19 0 16-8 28-23 35-8 3-18 4-227 4-173 0-218 0-219 2-5 25-20 57-36 81-13 19-47 53-66 65-30 20-64 34-97 40-21 4-69 4-90 0z m76-78c10-2 24-6 33-9l15-6-9-8c-11-10-27-35-42-64l-12-23-12 0-12 0-11 24c-15 31-28 50-41 63l-11 10 10 4c26 11 61 14 92 9z m-130-77c4-6 16-20 27-31l20-21-3-7c-1-3-2-10-2-14l-1-8-28-5c-42-6-73-18-79-30l-3-4-1 5c-3 8-2 38 1 54 6 31 21 61 43 86l9 10 5-12c2-6 8-17 12-23z m241 6c7-9 19-33 19-37 0-2-10-2-42-2l-42 0 7 8c16 17 29 37 34 51l3 6 7-9c4-5 11-12 14-17z m432-139c-9-11-23-28-31-37l-14-17-158-1-159-1 64-78c35-43 70-86 79-96l15-19-21-26-21-25-123 150c-68 83-127 155-131 161l-9 11 263 0 263 0-17-22z m-599 6c8-9 8-8 1-40-4-22-4-67-1-78 2-4 5-10 8-13 3-3 4-6 4-6-1 0-8 2-17 3-34 7-66 24-90 48-13 13-29 35-34 48l-3 7 5-2c10-3 31-1 46 4 14 4 51 22 65 32 5 2 8 5 9 5 0 0 4-4 7-8z m82-100l16-20-6-4c-7-3-35-11-41-11-4 0-4 0-1 4 6 6 10 18 11 37 0 10 1 17 2 16 1 0 9-10 19-22z" horiz-adv-x="1000" />

<glyph glyph-name="wifi" unicode="&#xe818;" d="M474 704c-78-3-148-18-217-43-90-34-174-88-242-154l-13-12 28-27 27-28 13 12c69 66 146 113 234 143 127 42 267 42 393 0 89-30 166-77 235-143l12-12 28 28 27 27-12 12c-68 66-153 120-242 154-63 23-126 37-197 42-11 1-63 2-74 1z m7-194c-71-4-131-19-191-46-53-25-97-55-142-98l-8-8 27-28 28-27 9 8c64 64 150 106 240 118 35 4 75 4 111 0 90-11 178-54 243-118l9-8 27 27 28 28-8 8c-13 12-27 24-37 33-80 63-174 101-274 109-13 1-52 2-62 2z m-3-195c-73-6-141-36-191-86l-10-9 28-27 27-28 8 8c43 42 101 65 161 65 59 0 118-23 161-65l8-8 27 28 27 27-9 9c-57 56-136 87-216 87-7 0-16-1-21-1z m13-194c-19-2-39-9-54-19-6-4-16-13-20-16l-2-3 43-43 43-43 43 43 43 43-2 3c-4 3-15 12-20 16-12 8-30 15-44 17-7 2-24 3-30 2z" horiz-adv-x="1000" />
</font>
</defs>
</svg>
