<svg xmlns="http://www.w3.org/2000/svg" width="1200" height="455" shape-rendering="geometricPrecision" text-rendering="geometricPrecision" image-rendering="optimizeQuality" fill-rule="evenodd" clip-rule="evenodd"><defs><style>.fil0{fill:#fefefe}.fil1{fill:#fce802}.fil2{fill:#717272}</style></defs><g id="Слой_x0020_1"><g id="_2131702536048"><path class="fil0" d="M1092 395h6v33l11 1v5l-17 1v-40zm-871 1l6-1c1 10-5 33 7 34s9-17 9-34h6c0 17 5 42-15 40-8 0-13-5-14-13 0-7 0-20 1-26zM25 435h-7l18-43 19 43h-8l-4-11H29l-4 11zm171-13c-3 9-13 17-26 12-9-3-17-14-12-26 10-26 48-10 38 14zm538-3c-2-12 6-22 16-24 13-2 23 6 25 16 4 28-36 34-41 8zm249-1c-3-28 37-31 41-6 4 27-38 32-41 6zm-648 17v-40c12 0 30 0 30 20s-19 20-30 20zm719-16v16h-7v-40c11 0 19-1 21 8 5 16-12 16-14 16zm-153 0v16h-7v-40c11 0 19-1 22 9 1 4-1 8-3 11-4 4-7 3-12 4zm-96 16h-7v-43c6 4 26 28 29 29v-26h6l1 43c-3-2-25-26-29-29v26zm-524 0h-7v-43l21 22c2 1 2 2 4 3 2 3 1 3 4 4v-26h7v43c-4-2-25-27-29-29v26zm856-7h15v7h-22v-40h19c5 0 1 0 3 2v5h-15v8c4 0 11 0 14 1v6h-14v11zm-191-18h14v6c-1 1 2 1-3 1h-11v11c5 0 10-1 15 0 1 8-1 6-2 7h-19c-2-2-2 2-2-3v-36c5-2 18-2 23-1v7c-5 1-10 0-15 0v8zm-291-14l24-1v7h-9v33h-7v-33h-8v-6zm-92 14h14v6l-14 1v12h15v6h-22v-39l22-1v7h-15v8zm-43 0h12v6l-12 1v18h-7v-40h19v7h-12v8zm-44 0h7c5 0 5-1 5 7h-11l-1 18h-6l-1-39 20-1v7h-13v8zm-46 0h15v6l-15 1v11l15 1v6h-22v-39l22-1v7h-15v8zm203 13v9c-29 16-45-24-21-35 7-3 17-3 21 3l-1 6c-3-2-7-7-15-4-13 4-13 22 0 26 8 3 12-3 16-5zm-515-16c7 5 22 7 15 22-5 10-23 8-24-5l6-2c2 4 2 6 5 7 4 1 8-2 8-5 1-7-10-7-14-11-5-5-3-14 2-17 9-4 15 0 18 6l-5 3c-5-5-11-7-11 2zM18 322h1134v8L18 331v-9zm1064-87l11 1v63h-11v-64zm-392 0l11 1v63h-11v-64zm340 64h-11l24-63 9-1 24 64h-11l-6-16c-28 0-22-4-29 16zm-393 0h-11l25-63h8c3 3 11 27 13 31 3 7 11 26 12 32h-11l-6-16c-28 0-23-2-26 8-2 2-3 6-4 8zm169-32l22-1v11h-22v-10zm100 5c-7-43 59-53 65-10 6 45-59 52-65 10zm104-8v1h1c3 2 7 3 8 11 3 24-23 25-42 23v-63c9-1 26-1 32 3 7 6 9 17 1 25zm105 35h-11v-64l11 1c6 8 21 35 26 40v-40h11v63h-10c-4-5-9-15-13-21-2-4-11-19-14-21v42zm-393 0h-10l-1-64 12 1c2 5 9 14 13 20 3 6 9 15 13 20 0-9-2-34 0-40h10l1 63h-11c-6-8-23-39-26-43l-1 43zm44-63h43c1 3 1 6 0 10h-16v53h-10l-1-53h-16v-10zm120 41h-24v-10l38-1c4 37-52 49-62 9s47-56 60-21h-13c-17-20-38-3-37 15 1 15 17 25 30 17 6-2 6-3 8-9zm-300 4h10c3 4 4 8 12 8 6-1 11-6 7-12-4-8-21-7-25-17-12-25 32-39 36-7l-11-1c-6-16-24-1-11 6 10 6 21 6 23 19 3 27-38 33-41 4zm399-135c-12 69-101 74-133 46-8-7-15-17-19-29-3-10-3-22-2-34 12-74 132-83 151-16 3 10 4 22 3 33zm-415 56v38c-1 4-6 7-9 10h-52c-9 0-8-1-8-10 0-50-2-108 0-155 15-9-7-6 30-11 9-2 30-5 38-4l1 8c10-6 15-10 30-10 18 0 31 8 39 21 9 13 13 30 13 47 0 16-3 34-13 47-8 11-20 22-36 24-12 2-23 0-33-5zM401 69c76-11 104 58 75 104-13 20-34 31-57 34-21 3-46-1-61-11-41-28-38-115 43-127zm600 134c-3-5-2-109-1-123 1-2 5-3 8-8 9-1 54-2 59 0 2 4 2 7 2 11 8-6 12-10 25-13 37-9 58 9 58 52 0 9 1 71-1 74-4 11-20 9-30 9h-28c-14 0-10 1-10-51 0-18 4-41-14-37-2 15 1 68 0 78-1 2-7 9-10 9l-54 1c-4-1-4-1-4-2zm-266-86c-1 5-1 59-1 71 0 14-3 8-8 16-8 1-54 1-60 0-2-6-1-133-1-159 0-10-2-19 7-25 3-1 58-2 62 0 3 9-1 49 1 62 20-18 63-21 77 6 7 15 6 32 6 50v57l-9 9c-10 1-29 0-40 0-25 0-20 4-20-21 0-7 0-55-1-60-2-4-6-8-13-6zm-465 26c7 0 43-1 47 1 1 1 1-2 1 3 1 1 0 3 0 4-1 11-5 23-12 31-14 18-37 26-62 26-45 0-71-22-72-67-1-72 85-86 123-62 8 5 13 9 17 18 4 8 7 19 6 30-5 2-4 4-8 7h-39c-6 0-9 1-10-4-2-13-8-22-21-19-5 1-5 3-6 8-2 8-3 16-2 25 3 25 24 25 28 16 1-4 1-7 3-10s4-3 7-7zM147 77H95l-1 15c14 0 45-1 58 1 1 9 1 16 1 25 0 6-6 9-9 12l-49 1-1 15c13 1 57-2 65 1 2 12 1 32 1 45 0 6-8 13-13 13H24c-8 0-6-1-6-17 0-18-1-157 0-160 9-11 9-9 28-9 18 0 106-1 111 1 1 7 1 42 0 47-1 3-7 9-10 10zm1012-53c24-7 31 28 10 34-23 7-33-28-10-34zM0 455h1200V0H0v455z"/><path class="fil1" d="M31 27v164h122v-38H99c-9 0-11 2-11-8 0-9-1-18 0-27 6-2 48-1 58-1V99c-10 0-52 1-58-1-1-8 0-16 0-24 0-9-1-10 8-10h55V26L31 27zm648 164h49c0-8-1-71 1-77s8-11 16-11 13 6 15 11c3 6 2 68 2 77h49v-54c0-27 5-69-46-62-29 4-27 20-36 19-3-6-1-57-1-68h-49v165zm-101-90c20-5 29 8 31 26s0 37-17 41c-19 5-30-6-31-25-1-18 0-38 17-42zm-15-25l-49 7c-1 5-1 139 0 154h49v-45c0-7-1-9 3-12 4 1 7 6 11 9 4 2 9 4 15 5 39 6 56-26 53-66-1-15-4-27-12-38-11-16-35-19-52-11-8 3-7 5-11 9-8 6-7-7-7-12zm499 2h-49v113h49c0-8-1-71 1-77 5-12 24-16 32-1 3 7 1 69 1 78h49v-59c0-21 2-38-11-49-14-13-50-12-64 9-10 15-8-11-8-14zm-658 24c8-3 18-1 24 3 11 8 16 55-6 63-8 2-19 1-25-3-11-10-10-35-7-47 2-10 5-13 14-16zm75 47c7-42-15-69-52-73-41-5-74 9-80 45-8 42 15 68 52 73 41 5 74-11 80-45zm427-48c21-4 28 9 29 28 2 19-1 36-19 39-21 4-28-9-29-28-1-17 0-36 19-39zm-8-26c-39 6-59 32-53 72 5 36 39 52 80 47 37-5 60-30 53-72-5-35-39-53-80-47z"/><path class="fil2" d="M18 331l1134-1v-8H18z"/><path class="fil1" d="M311 150h-38c-10 36-48 28-48-14 0-40 27-42 39-32 5 3 7 10 10 17l37 1c0-17-11-32-21-37-26-16-106-20-105 51 0 37 20 57 56 59 18 2 36-1 49-8 11-6 22-19 21-37z"/><path class="fil2" d="M151 26v38H96c-9 0-8 1-8 10 0 8-1 16 0 24 6 2 48 1 58 1v18c-10 0-52-1-58 1-1 9 0 18 0 27 0 10 2 8 11 8h54v38H31V27l120-1zm-4 51c3-1 9-7 10-10 1-5 1-40 0-47-5-2-93-1-111-1-19 0-19-2-28 9-1 3 0 142 0 160 0 16-2 17 6 17h123c5 0 13-7 13-13 0-13 1-33-1-45-8-3-52 0-65-1l1-15 49-1c3-3 9-6 9-12 0-9 0-16-1-25-13-2-44-1-58-1l1-15h52zm532-51h49c0 11-2 62 1 68 9 1 7-15 36-19 51-7 46 35 46 62v54h-49c0-9 1-71-2-77-2-5-7-11-15-11s-14 5-16 11-1 69-1 77h-49V26zm56 91c7-2 11 2 13 6 1 5 1 53 1 60 0 25-5 21 20 21 11 0 30 1 40 0l9-9v-57c0-18 1-35-6-50-14-27-57-24-77-6-2-13 2-53-1-62-4-2-59-1-62 0-9 6-7 15-7 25 0 26-1 153 1 159 6 1 52 1 60 0 5-8 8-2 8-16 0-12 0-66 1-71zm327-39c0 3-2 29 8 14 14-21 50-22 64-9 13 11 11 28 11 49v59h-49c0-9 2-71-1-78-8-15-27-11-32 1-2 6-1 69-1 77h-49V78h49zm-61 125c0 1 0 1 4 2l54-1c3 0 9-7 10-9 1-10-2-63 0-78 18-4 14 19 14 37 0 52-4 51 10 51h28c10 0 26 2 30-9 2-3 1-65 1-74 0-43-21-61-58-52-13 3-17 7-25 13 0-4 0-7-2-11-5-2-50-1-59 0-3 5-7 6-8 8-1 14-2 118 1 123zm-690-53c1 18-10 31-21 37-13 7-31 10-49 8-36-2-56-22-56-59-1-71 79-67 105-51 10 5 21 20 21 37l-37-1c-3-7-5-14-10-17-12-10-39-8-39 32 0 42 38 50 48 14h38zm-41-7c-3 4-5 4-7 7s-2 6-3 10c-4 9-25 9-28-16-1-9 0-17 2-25 1-5 1-7 6-8 13-3 19 6 21 19 1 5 4 4 10 4h39c4-3 3-5 8-7 1-11-2-22-6-30-4-9-9-13-17-18-38-24-124-10-123 62 1 45 27 67 72 67 25 0 48-8 62-26 7-8 11-20 12-31 0-1 1-3 0-4 0-5 0-2-1-3-4-2-40-1-47-1zm293-67c0 5-1 18 7 12 4-4 3-6 11-9 17-8 41-5 52 11 8 11 11 23 12 38 3 40-14 72-53 66-6-1-11-3-15-5-4-3-7-8-11-9-4 3-3 5-3 12v45h-49c-1-15-1-149 0-154l49-7zm7 126c10 5 21 7 33 5 16-2 28-13 36-24 10-13 13-31 13-47 0-17-4-34-13-47-8-13-21-21-39-21-15 0-20 4-30 10l-1-8c-8-1-29 2-38 4-37 5-15 2-30 11-2 47 0 105 0 155 0 9-1 10 8 10h52c3-3 8-6 9-10v-38zm-91-53c-6 34-39 50-80 45-37-5-60-31-52-73 6-36 39-50 80-45 37 4 59 31 52 73zm-78-80c-81 12-84 99-43 127 15 10 40 14 61 11 23-3 44-14 57-34 29-46 1-115-75-104zm497 6c41-6 75 12 80 47 7 42-16 67-53 72-41 5-75-11-80-47-6-40 14-66 53-72zm87 71c1-11 0-23-3-33-19-67-139-58-151 16-1 12-1 24 2 34 4 12 11 22 19 29 32 28 121 23 133-46zm-99 131c-2 6-2 7-8 9-13 8-29-2-30-17-1-18 20-35 37-15h13c-13-35-70-19-60 21s66 28 62-9l-38 1v10h24zm49-31c27-5 36 37 8 42-28 6-37-37-8-42zm-29 26c6 42 71 35 65-10-6-43-72-33-65 10zm209-15c3 2 12 17 14 21 4 6 9 16 13 21h10v-63h-11v40c-5-5-20-32-26-40l-11-1v64h11v-42zm-392-1c3 4 20 35 26 43h11l-1-63h-10c-2 6 0 31 0 40-4-5-10-14-13-20-4-6-11-15-13-20l-12-1 1 64h10l1-43zm266 31l-1-17c9-1 19-1 19 9s-11 9-18 8zm-1-41c11-1 18-1 16 10-6 4-8 4-16 3v-13zm22 18c8-8 6-19-1-25-6-4-23-4-32-3v63c19 2 45 1 42-23-1-8-5-9-8-11h-1v-1z"/><path class="fil2" d="M896 115c12-3 22-2 25 10 2 9 2 27-1 36-2 1-36 14-24-46zm10-14c-19 3-20 22-19 39 1 19 8 32 29 28 18-3 21-20 19-39-1-19-8-32-29-28zm-336 14c13-3 22-1 25 12 2 10 3 28-2 34-14 4-22 0-25-12-2-11-1-24 2-34zm8-14c-17 4-18 24-17 42 1 19 12 30 31 25 17-4 19-23 17-41s-11-31-31-26zm-183 46c-1-7-2-31 5-33 13-4 21 3 23 16 1 5 3 30-4 32-14 4-22-4-24-15zm9-45c-9 3-12 6-14 16-3 12-4 37 7 47 6 4 17 5 25 3 22-8 17-55 6-63-6-4-16-6-24-3z"/><path class="fil0" d="M935 246c-29 5-20 48 8 42 28-5 19-47-8-42z"/><path class="fil2" d="M655 253c1 1 0-1 2 2l6 17h-15l7-19zm-18 46c1-2 2-6 4-8 3-10-2-8 26-8l6 16h11c-1-6-9-25-12-32-2-4-10-28-13-31h-8l-25 63h11zm403-27c1-3 5-16 8-19l7 19h-15zm-10 27c7-20 1-16 29-16l6 16h11l-24-64-9 1-24 63h11zm-444-18c3 29 44 23 41-4-2-13-13-13-23-19-13-7 5-22 11-6l11 1c-4-32-48-18-36 7 4 10 21 9 25 17 4 6-1 11-7 12-8 0-9-4-12-8h-10z"/><path class="fil0" d="M570 115c-3 10-4 23-2 34 3 12 11 16 25 12 5-6 4-24 2-34-3-13-12-15-25-12zm-175 32c2 11 10 19 24 15 7-2 5-27 4-32-2-13-10-20-23-16-7 2-6 26-5 33zm501-32c-12 60 22 47 24 46 3-9 3-27 1-36-3-12-13-13-25-10z"/><path class="fil2" d="M766 246h16l1 53h10v-53h16c1-4 1-7 0-10h-43v10zm316 53h11v-63l-11-1zm-392 0h11v-63l-11-1z"/><path class="fil0" d="M1158 51c-2-5-1-14-1-20 13-1 18 3 12 10 2 3 2 5 2 10-6 0-3-2-5-8h-5c0 10 1 8-3 8zm-9-8c2 18 32 17 30-4-2-19-32-17-30 4z"/><path class="fil2" d="M1149 43c-2-21 28-23 30-4 2 21-28 22-30 4zm10-19c-23 6-13 41 10 34 21-6 14-41-10-34z"/><path class="fil0" d="M989 287c7 1 18 2 18-8s-10-10-19-9l1 17z"/><path class="fil2" d="M806 277h22v-11l-22 1z"/><path class="fil0" d="M988 259c8 1 10 1 16-3 2-11-5-11-16-10v13z"/><path class="fil2" d="M1161 34l5 1s3 1 0 4c-1 1-3 1-5 0v-5zm-3 17c4 0 3 2 3-8h5c2 6-1 8 5 8 0-5 0-7-2-10 6-7 1-11-12-10 0 6-1 15 1 20z"/><path class="fil0" d="M1040 272h15l-7-19c-3 3-7 16-8 19zm-392 0h15l-6-17c-2-3-1-1-2-2l-7 19zm513-233c2 1 4 1 5 0 3-3 0-4 0-4l-5-1v5z"/><path d="M60 415c0 3-1 6-1 9-1 3-2 5-4 7s-4 3-6 4-5 2-8 2c-4 0-6-1-9-2-2-1-4-2-5-4-2-2-3-4-4-6 0-3-1-6-1-10 0-3 1-6 1-9 1-2 2-5 4-7s4-3 6-4 5-2 9-2c3 0 5 1 8 2 2 1 4 2 5 4 2 2 3 4 4 7 1 2 1 5 1 9zm-6 0c0-2 0-5-1-7 0-2-1-3-2-5-1-1-2-3-4-4-1 0-3-1-6-1-2 0-4 1-6 2s-3 2-4 3c-1 2-2 4-2 6-1 2-1 4-1 6s0 5 1 7c0 2 1 4 2 5 1 2 2 3 4 4 1 0 3 1 6 1 2 0 4-1 6-1 2-1 3-3 4-4 1-2 2-4 2-6 1-2 1-4 1-6zm59-1c0 2 0 4-1 6 0 2-1 4-3 5-1 2-3 3-5 4-3 0-5 1-8 1v6h-5c-1 0-1 0-1-1v-5c-3 0-5 0-7-1-3-1-4-2-6-3-1-2-2-3-3-5s-1-4-1-7c0-2 0-4 1-6s2-4 3-5l6-3c2-1 4-2 7-2v-5h1v-1h4l1 1v5c3 0 6 1 8 1 2 1 4 2 5 3 2 2 3 3 3 5 1 2 1 4 1 7zm-5 0c0-2-1-3-1-4 0-2-1-3-2-4s-2-2-4-2c-1-1-3-1-5-1v22c2 0 4 0 5-1 2 0 3-1 4-2s2-2 2-4c0-1 1-2 1-4zm-18-11c-2 0-4 0-5 1-2 0-3 1-4 2s-1 2-2 4v8c1 2 1 3 2 4s2 2 4 2c1 1 3 1 5 1v-22zm70 32v1h-5v-32l-1 1v1c-1 0-1 0-1 1l-1 1-18 27v1h-5v-42h5v32c1 0 1-1 2-1 0-1 1-2 1-3l18-27s0-1 1-1h4v41zm54 11v1h-5v-11h-30c0-1-1-1-1-2v-39l1-1h5v37h19v-37h5v37h5l1 1v14zm45-11v1h-5v-32s-1 0-1 1v1c-1 0-1 0-1 1l-1 1-18 27v1h-5v-42h5v32c1 0 1-1 1-1 1-1 1-2 2-3l18-27s0-1 1-1h4v41zm50-1v2h-6v-1l-3-10h-18l-3 10c-1 0-1 1-1 1h-5v-2l14-39 1-1h6c0 1 1 1 1 1l14 39zm-18-34l-8 21h15l-7-21zm61 35v1h-5v-37h-12c-1 5-1 9-2 13s-1 7-2 10-1 5-2 7-2 3-3 5c-1 1-2 2-3 2s-3 1-5 1c0-1 0-1-1-1v-4h1v-1h2c1 0 2-1 3-2 0-1 1-2 1-4 1-1 2-3 2-6 1-3 1-6 2-9 0-4 1-8 1-13 0-1 1-2 1-2 0-1 1-1 1-1h19c1 0 1 0 2 1v40zm46-12c0 2 0 3-1 5 0 1-1 3-2 4s-3 2-5 3-5 1-8 1h-11c0-1 0-1-1-1v-41h6v17h13c2 1 4 2 5 3s2 2 3 4c1 1 1 3 1 5zm-6 1v-4c-1-1-1-2-2-3-1 0-2-1-3-1-1-1-3-1-5-1h-6v16h12c1-1 2-1 3-2 0-1 1-2 1-3v-2zm51 11v1h-6v-19h-19v19h-6v-42h6v18h19v-18h6v41zm57 0v1h-5v-42h5v41zm-12-12c0 2 0 3-1 5 0 1-1 3-2 4-2 1-3 2-5 3s-5 1-8 1h-11v-42h5v17h6c3 0 6 0 7 1 2 0 4 1 5 2s2 2 3 4c1 1 1 3 1 5zm-6 1v-4c-1-1-1-2-2-2-1-1-2-2-3-2s-3-1-5-1h-6v17h6c3 0 4-1 6-1 1-1 2-1 3-2 0-1 1-2 1-3v-2zm68 11v1h-6v-32 1s-1 0-1 1l-1 1v1l-19 27v1h-5v-42h6v32l1-1c0-1 1-2 1-3l19-27v-1h5v41zm-6-52v3c-1 1-1 2-2 3s-2 1-3 2h-9c-1-1-2-1-3-2s-2-1-2-3c0-1-1-2-1-3l1-1h4v1c0 1 0 1 1 2 0 0 0 1 1 1 0 1 1 1 1 1 1 0 2 1 2 1 1 0 2-1 3-1 0 0 1 0 1-1 1 0 1-1 1-1v-2l1-1h4v1zm103 63v1h-4v-11h-32v11h-5v-15l1-1h3s1-1 1-2c1-1 1-2 2-3 0-1 1-2 1-4 1-1 1-3 2-6 0-2 1-5 1-8s1-7 1-12c1 0 1-1 1-1 0-1 1-1 1-1h20c1 0 1 0 1 1 1 0 1 1 1 1v35h4c1 0 1 1 1 1v14zm-11-47h-12c-1 4-1 7-2 10 0 3 0 6-1 8 0 2-1 4-1 6-1 1-1 3-2 4 0 1 0 2-1 2 0 1-1 2-1 2h20v-32zm57 36v1h-6v-32 1c-1 0-1 0-1 1l-1 1v1l-19 27v1h-5v-42h6v32s0-1 1-1c0-1 1-2 1-3l19-27v-1h5v41zm46-5v2c-1 0-1 1-1 1s-1 0-1 1c-1 0-2 1-3 1-1 1-2 1-3 1-2 1-3 1-5 1-3 0-5-1-7-2s-4-2-6-4c-1-1-3-4-3-6-1-3-2-6-2-9 0-4 1-7 2-10 1-2 2-5 3-7 2-2 4-3 6-4 3-1 5-2 8-2 1 0 2 1 3 1 2 0 3 0 4 1 1 0 1 0 2 1 1 0 1 1 2 1v1h1v3s0 1-1 1h-2c0-1-1-1-2-2-1 0-2-1-3-1s-3-1-4-1c-2 0-4 1-5 1-2 1-3 2-4 4-1 1-2 3-3 5 0 2-1 5-1 7 0 3 0 5 1 7s1 4 3 6c1 1 2 2 4 3 1 0 3 1 5 1s3 0 4-1c2 0 3-1 3-1 1-1 2-1 3-2h2v2zm40-34v3h-12v36l-1 1h-5v-37h-12c-1 0-1-1-1-1v-3c0-1 0-1 1-1h30v2zm39 10c0 2 0 4-1 6s-2 3-3 4c-1 2-3 3-5 3-1 1-4 1-6 1h-5v16h-6v-40l1-1c0-1 1-1 2-1h11c1 0 2 0 3 1 1 0 2 0 4 1l3 3c0 1 1 2 2 3v4zm-6 1c0-2 0-3-1-4 0-2-1-3-2-3-1-1-2-1-3-1h-8v17h5c2 0 3-1 4-1 1-1 2-1 3-2s1-2 2-3v-3zm53 28v1h-5v-32c-1 0-1 0-1 1l-1 1v1c-1 0-1 1-1 1l-18 27c0 1-1 1-1 1h-4v-42h5v32l1-1c1-1 1-2 2-3l18-27v-1h5v41zm46-11c0 1 0 3-1 4 0 2-1 3-2 4-2 1-3 2-5 3s-4 1-8 1h-11c-1-1-1-1-1-2v-38c0-1 0-1 1-1 0-1 1-1 1-1h23v5h-19v13h7c3 0 5 0 7 1 2 0 3 1 4 2s2 2 3 4c1 1 1 3 1 5zm-6 0c0-1 0-2-1-3 0-1 0-2-1-3-1 0-2-1-3-1s-2-1-4-1h-7v16h7c2 0 3-1 4-1s2-1 3-1c1-1 1-2 1-3 1-1 1-2 1-3zm49-1c0 2 0 3-1 5-1 1-1 3-3 4-1 1-2 2-4 3s-5 1-9 1h-11v-42h5v17h14c2 1 3 2 5 3 1 1 2 2 3 4 0 1 1 3 1 5zm-6 1c0-2 0-3-1-4 0-1-1-2-1-3-1 0-2-1-3-1-2-1-3-1-6-1h-6v16h12c2-1 3-1 3-2 1-1 1-2 2-3v-2zm70-9c0 3-1 6-1 9-1 3-2 5-4 7-1 2-3 3-6 4-2 1-5 2-8 2s-5-1-8-2c-2-1-4-2-5-4-2-1-3-4-3-6-1-3-2-5-2-8h-7v18c0 1-1 1-1 1h-5v-42h5c0 1 1 1 1 1v17h7c1-3 1-5 2-8 1-2 2-4 4-5 1-2 3-3 5-4s5-2 8-2 5 1 8 2c2 1 4 2 5 4 2 2 3 4 4 7 0 2 1 5 1 9zm-6 0c0-2 0-4-1-7 0-2-1-3-2-5-1-1-2-3-4-3-1-1-3-2-6-2-2 0-4 1-6 2l-3 3c-1 2-2 4-2 6-1 2-1 4-1 6v4c0 2 1 3 1 4 0 2 1 3 2 4 0 1 1 2 2 2 1 1 2 2 3 2 1 1 3 1 4 1 3 0 5-1 6-1 2-1 3-3 4-4 1-2 2-3 2-5 1-2 1-5 1-7zm46-19v3h-13v37h-5v-37h-13v-5h31v2zm47 19c0 3-1 6-1 9-1 3-3 5-4 7-2 2-4 3-6 4-3 1-5 2-9 2-3 0-5-1-8-2-2-1-4-2-5-4-2-2-3-4-4-6-1-3-1-6-1-10 0-3 0-6 1-9 1-2 2-5 4-7 1-2 3-3 6-4 2-1 5-2 8-2s6 1 8 2c3 1 5 2 6 4 2 2 3 4 4 7 0 2 1 5 1 9zm-6 0c0-2 0-5-1-7 0-2-1-3-2-5-1-1-2-3-4-4-2 0-4-1-6-1s-4 1-6 2-3 2-4 3c-1 2-2 4-2 6-1 2-1 4-1 6s0 5 1 7c0 2 1 4 2 5 1 2 2 3 4 4 1 0 3 1 6 1 2 0 4-1 6-1 2-1 3-3 4-4 1-2 2-4 2-6 1-2 1-4 1-6zm47-9c0 2 0 4-1 6s-1 3-3 4c-1 2-3 3-5 3-1 1-4 1-6 1h-5v16h-6v-40l1-1c1-1 1-1 2-1h11c1 0 2 0 3 1 1 0 2 0 4 1l3 3c0 1 1 2 2 3v4zm-6 1c0-2 0-3-1-4 0-2-1-3-2-3-1-1-2-1-3-1h-8v17h5c2 0 3-1 4-1 1-1 2-1 3-2s1-2 2-3v-3z" fill="#373737" fill-rule="nonzero"/></g></g></svg>