<svg version="1" xmlns="http://www.w3.org/2000/svg" width="1708" height="1708" viewBox="0 0 1281 1281"><path d="M760.5.7c-85.5 7.1-149 32.6-198 79.4-36.4 34.9-62.3 82.7-72.8 134.9-6.2 30.3-6.1 28.2-6.5 142.2l-.3 104.8H325v220h158v599h233V682h223.6l4.7-102.3c2.7-56.2 5.1-105.7 5.4-110l.6-7.7H715.9l.4-92.8c.3-92.1.3-92.8 2.6-102.7 6.8-30.3 22.8-45.1 55.5-51.3 8.2-1.5 17.1-1.7 89.4-1.6l80.2.1v-10.1c0-5.5 1.1-51.7 2.5-102.6 1.3-50.8 2.3-92.6 2.2-92.7-1.2-1.1-58.7-5.7-91.2-7.3-19.1-.9-87.3-1.1-97-.3z" fill="#a1a1a1"/></svg>