<?xml version="1.0" standalone="no"?>
<!DOCTYPE svg PUBLIC "-//W3C//DTD SVG 20010904//EN"
 "http://www.w3.org/TR/2001/REC-SVG-20010904/DTD/svg10.dtd">
<svg version="1.0" xmlns="http://www.w3.org/2000/svg"
 width="256.000000pt" height="256.000000pt" viewBox="0 0 256.000000 256.000000"
 preserveAspectRatio="xMidYMid meet">
<metadata>
Created by potrace 1.15, written by Peter Selinger 2001-2017
</metadata>
<g transform="translate(0.000000,256.000000) scale(0.100000,-0.100000)"
fill="#fff" stroke="none">
<path d="M380 2544 c-18 -8 -91 -72 -162 -141 -105 -104 -133 -139 -162 -197
-43 -89 -56 -152 -56 -272 0 -690 858 -1671 1662 -1899 113 -33 325 -45 417
-25 117 25 187 70 324 208 72 73 133 144 142 165 24 58 20 163 -10 223 -31 63
-429 461 -495 495 -59 31 -177 33 -230 5 -19 -10 -92 -75 -162 -144 l-127
-125 -98 73 c-126 95 -418 387 -513 513 l-73 98 125 127 c69 70 134 143 144
162 28 53 26 171 -5 230 -34 66 -432 464 -495 495 -59 30 -169 34 -226 9z
m362 -372 c185 -184 218 -222 218 -247 0 -24 -24 -53 -139 -170 -213 -215
-214 -229 -2 -495 97 -122 319 -344 441 -441 143 -114 196 -147 244 -154 71
-11 115 16 261 164 108 109 135 131 159 131 26 0 62 -32 243 -212 117 -116
216 -223 221 -237 5 -15 6 -35 2 -46 -5 -11 -61 -72 -127 -136 -145 -142 -182
-160 -333 -160 -253 0 -587 152 -920 417 -104 83 -334 312 -417 414 -347 430
-506 883 -392 1113 12 23 73 95 137 160 105 105 120 117 152 117 32 0 52 -17
252 -218z"/>
<path d="M1280 2480 c0 -92 -9 -85 120 -94 41 -3 117 -17 168 -31 447 -120
785 -523 820 -977 l7 -93 83 -3 82 -3 0 69 c0 200 -84 453 -217 656 -60 90
-247 277 -338 338 -204 134 -455 218 -656 218 l-69 0 0 -80z"/>
<path d="M1362 1998 l3 -83 60 -7 c250 -28 456 -234 483 -483 l7 -60 83 -3 82
-3 0 54 c0 78 -33 196 -82 290 -59 114 -181 236 -295 295 -94 49 -212 82 -290
82 l-54 0 3 -82z"/>
</g>
</svg>
